<?xml version="1.0" standalone="no"?>
<!DOCTYPE svg PUBLIC "-//W3C//DTD SVG 20010904//EN"
 "http://www.w3.org/TR/2001/REC-SVG-20010904/DTD/svg10.dtd">
<svg version="1.0" xmlns="http://www.w3.org/2000/svg"
 width="512.000000pt" height="512.000000pt" viewBox="0 0 512.000000 512.000000"
 preserveAspectRatio="xMidYMid meet">
<metadata>
Created by potrace 1.11, written by Peter Selinger 2001-2013
</metadata>
<g transform="translate(0.000000,512.000000) scale(0.100000,-0.100000)"
fill="#000000" stroke="none">
<path d="M691 4317 c-37 -9 -81 -60 -82 -95 0 -15 -1 -583 -1 -1262 0 -683 -4
-1244 -9 -1255 -5 -11 -13 -27 -19 -35 -5 -8 -40 -67 -76 -130 -37 -63 -84
-143 -105 -178 -22 -35 -39 -65 -39 -68 0 -3 -16 -30 -35 -60 -19 -30 -35 -56
-35 -58 0 -4 -70 -122 -98 -166 -9 -14 -15 -28 -14 -33 1 -4 -3 -7 -8 -7 -6 0
-9 -26 -7 -66 3 -56 7 -69 28 -85 13 -10 35 -19 49 -20 131 -6 4632 -2 4652 4
42 13 61 42 63 95 2 52 -13 85 -138 292 -39 63 -84 140 -100 170 -17 30 -33
57 -36 60 -6 5 -11 13 -53 89 -11 20 -32 54 -47 76 -15 23 -39 65 -53 95 l-26
55 2 1245 c1 1188 0 1247 -17 1282 -13 26 -29 40 -54 49 -37 12 -262 17 -280
6 -6 -4 -13 -4 -17 0 -8 9 -910 8 -924 -1 -7 -4 -12 -4 -12 1 0 4 -141 7 -313
5 -171 -1 -325 -2 -342 -1 -147 4 -308 3 -312 -4 -2 -4 -9 -4 -15 -1 -6 4
-288 6 -627 5 -626 -1 -641 -1 -699 2 -19 1 -36 -1 -39 -5 -2 -5 -9 -5 -15 -2
-15 10 -113 10 -147 1z"/>
</g>
</svg>
